<svg width="34" height="40" viewBox="0 0 34 40" fill="none" xmlns="http://www.w3.org/2000/svg"><path fill-rule="evenodd" clip-rule="evenodd" d="M16.667 38.333c-.925 1.387-.926 1.386-.926 1.386l-.005-.003-.01-.007-.039-.026a31.46 31.46 0 01-.64-.451 52.367 52.367 0 01-7.09-6.21C4.14 28.991 0 23.17 0 16.666a16.667 16.667 0 1133.333 0c0 6.503-4.14 12.326-7.956 16.354a52.353 52.353 0 01-7.09 6.211 31.085 31.085 0 01-.64.451l-.04.026-.01.007-.004.003s-.002.001-.926-1.386zm0 0l.924 1.387a1.67 1.67 0 01-1.85 0l.926-1.387z" fill="#215BF0"/><circle cx="16.667" cy="16" r="6" fill="#fff"/></svg>